<svg id="Layer_1" data-name="Layer 1" xmlns="http://www.w3.org/2000/svg" viewBox="0 0 177.4 132.57"><defs><style>.cls-1{fill:#070707;}.cls-2{fill:#060606;}</style></defs><path class="cls-1" d="M163.08,80.92c5.1,3.77,8.31,9.36,13.11,13.48,2.41,2.08,1,4.89-2.35,5a11.24,11.24,0,0,1-9.68-4.28c-2.62-3.29-4.93-3.08-7.73,0-5.87,6.35-11.32,13.19-18.27,18.39-25,18.68-53,22.68-82.87,16.11-14.84-3.27-29-8.63-40.94-18.57-2.5-2.07-4.47-1.63-6.14,1.1A9.35,9.35,0,0,1,6,114.79a3.89,3.89,0,0,1-5,.21c-1.57-1.28-.83-3.17.1-4.49,2.86-4.07,5.87-8,8.9-12a2.77,2.77,0,0,1,3.58-.82,2.34,2.34,0,0,1,1.58,2.91,2,2,0,0,1-.16.4c-1.58,4.34,1.43,6.45,4.16,8.61,10,7.91,21.67,12.26,33.9,15.06a94.45,94.45,0,0,0,52.17-2.78c4.37-1.56,8.89-2.72,13-5.06,10.78-5.11,19.56-12.68,27-21.92,2.76-3.88,6.34-7.34,6.13-12.69-.09-2.09,1.21-2.78,3.24-2.79C157.41,79.39,160.36,79.42,163.08,80.92Z"/><path class="cls-2" d="M23.48,27C15.77,26.92,9.13,21.85,9.1,16c0-5.17,4.39-9,10.4-9.06,7.69-.06,14.27,5,14.25,11C33.73,23.49,29.69,27,23.48,27Z"/><path class="cls-1" d="M126.11,18.89A18.43,18.43,0,0,1,115,15.35c-2.66-1.83-4.46-4-3.88-7.38A8.81,8.81,0,0,1,117,.66c7.3-2.66,17.11,3.05,18.41,10.68C136.18,15.81,132.46,18.83,126.11,18.89Z"/></svg>